<svg xmlns="http://www.w3.org/2000/svg" viewBox="0 0 64 64">
  <path d="M10.77 33.388l-.702-.233-.113-.347-.178.25L4 31.14l.732-2.3 5.964 1.98v.331l.315-.227.685.227v-.722l.315-.227-.315-.104V24h2.368v6.177l-.315.105.315.227v.722l.685-.228.315.228v-.332l6.204-2.06L22 31.14l-5.861 1.946-.178-.25-.113.347-.702.233.428.602-.113.347.291-.097 3.776 5.31L17.612 41l-4.05-5.696.201-.283h-.403l-.412-.58-.412.58h-.403l.201.283L8.284 41l-1.916-1.422 3.796-5.338.29.097-.113-.347.429-.602zm19 0l-.702-.233-.113-.347-.178.25L23 31.14l.732-2.3 5.964 1.98v.331l.315-.227.685.227v-.722l.315-.227-.315-.104V24h2.368v6.177l-.315.105.315.227v.722l.685-.228.315.228v-.332l6.204-2.06L41 31.14l-5.861 1.946-.178-.25-.113.347-.702.233.428.602-.113.347.291-.097 3.776 5.31L36.612 41l-4.05-5.696.201-.283h-.403l-.412-.58-.412.58h-.403l.201.283L27.284 41l-1.916-1.422 3.796-5.338.29.097-.113-.347.429-.602zm19 0l-.702-.233-.113-.347-.178.25L42 31.14l.732-2.3 5.964 1.98v.331l.315-.227.685.227v-.722l.315-.227-.315-.104V24h2.368v6.177l-.315.105.315.227v.722l.685-.228.315.228v-.332l6.204-2.06L60 31.14l-5.861 1.946-.178-.25-.113.347-.702.233.428.602-.113.347.291-.097 3.776 5.31L55.612 41l-4.05-5.696.201-.283h-.403l-.412-.58-.412.58h-.403l.201.283L46.284 41l-1.916-1.422 3.796-5.338.29.097-.113-.347.429-.602z"/>
</svg>
