<svg xmlns="http://www.w3.org/2000/svg" viewBox="0 0 64 64">
  <g fill-rule="evenodd">
    <g fill-rule="nonzero" transform="translate(11 3)">
      <path d="M21 29.5c-5.842 0-10.5-6.521-10.5-14.5S15.158.5 21 .5 31.5 7.021 31.5 15 26.842 29.5 21 29.5zm0-1c5.204 0 9.5-6.015 9.5-13.5S26.204 1.5 21 1.5 11.5 7.515 11.5 15s4.296 13.5 9.5 13.5z"/>
      <path d="M21.06 33.5c-5.673 0-8.08-1.03-9.87-5.846-1.403.525-2.479.688-4.522.845-1.527.117-2.025.264-2.402.792C2.47 31.804 1.52 40.942 1.5 56.5h39.117c-.075-15.558-1.052-24.695-2.85-27.21-.376-.527-.874-.674-2.4-.791-2.044-.157-3.12-.32-4.522-.845-1.79 4.823-4.152 5.846-9.785 5.846zm9.677-6.963c1.537.63 2.53.798 4.705.964 1.818.14 2.526.35 3.14 1.208 1.996 2.793 2.98 12.152 3.037 28.29l.002.501H.5V57c0-16.138.956-25.497 2.953-28.29.613-.86 1.321-1.07 3.139-1.209 2.175-.166 3.168-.334 4.705-.964l.489-.2.173.5c1.642 4.748 3.619 5.663 9.1 5.663 5.44 0 7.37-.905 9.016-5.663l.173-.5.49.2z"/>
    </g>
    <g fill-rule="nonzero" transform="translate(11 3)">
      <path d="M21 29.5c-5.842 0-10.5-6.521-10.5-14.5S15.158.5 21 .5 31.5 7.021 31.5 15 26.842 29.5 21 29.5z"/>
      <path d="M30.737 26.537c1.537.63 2.53.798 4.705.964 1.818.14 2.526.35 3.14 1.208 1.996 2.793 2.98 12.152 3.037 28.29l.002.501H.5V57c0-16.138.956-25.497 2.953-28.29.613-.86 1.321-1.07 3.139-1.209 2.175-.166 3.168-.334 4.705-.964l.489-.2.173.5c1.642 4.748 3.619 5.663 9.1 5.663 5.44 0 7.37-.905 9.016-5.663l.173-.5.49.2z"/>
    </g>
  </g>
</svg>
