<svg xmlns="http://www.w3.org/2000/svg" viewBox="0 0 64 64">
  <path d="M58.91 51.5l-11.5-15.336.001-.17c.06-5.33.089-11.996.089-19.994 0-7.688-5.083-11.5-15.5-11.5S16.5 8.313 16.5 16c0 8.002-.03 14.67-.09 20.006v.163L4.91 51.5h54zm2 1h-58l12.503-16.67c.058-5.303.087-11.913.087-19.83 0-8.313 5.583-12.5 16.5-12.5S48.5 7.688 48.5 16c0 7.917-.03 14.529-.087 19.836L60.91 52.5zM32 59.5a5.502 5.502 0 0 0 4.9-3h-9.8c.923 1.81 2.799 3 4.9 3zm6.366-4l-.236.667a6.502 6.502 0 0 1-12.26 0l-.236-.667h12.732z"/>
</svg>
