<svg xmlns="http://www.w3.org/2000/svg" viewBox="0 0 64 64">
  <g fill-rule="evenodd">
    <path fill-rule="nonzero" d="M9 11v48h46V11h-8V6.44c-.372-.304-.704-.44-1-.44-.296 0-.628.136-1 .44V11H33V6.44c-.372-.304-.704-.44-1-.44-.296 0-.628.136-1 .44V11H19V6.44c-.372-.304-.704-.44-1-.44-.296 0-.628.136-1 .44V11H9zm7-1V6c.667-.667 1.333-1 2-1s1.333.333 2 1v4h10V6c.667-.667 1.333-1 2-1s1.333.333 2 1v4h10V6c.667-.667 1.333-1 2-1s1.333.333 2 1v4h8v50H8V10h8zm-3 11v34h38V21H13zm-1-1h40v36H12V20z"/>
    <path fill-rule="nonzero" d="M31 15.56c.372.304.704.44 1 .44.296 0 .628-.136 1-.44V6.44c-.372-.304-.704-.44-1-.44-.296 0-.628.136-1 .44v9.12zM30 6c.667-.667 1.333-1 2-1s1.333.333 2 1v10c-.667.667-1.333 1-2 1s-1.333-.333-2-1V6zm15 9.56c.372.304.704.44 1 .44.296 0 .628-.136 1-.44V6.44c-.372-.304-.704-.44-1-.44-.296 0-.628.136-1 .44v9.12zM44 6c.667-.667 1.333-1 2-1s1.333.333 2 1v10c-.667.667-1.333 1-2 1s-1.333-.333-2-1V6zm-27 9.56c.372.304.704.44 1 .44.296 0 .628-.136 1-.44V6.44c-.372-.304-.704-.44-1-.44-.296 0-.628.136-1 .44v9.12zM16 6c.667-.667 1.333-1 2-1s1.333.333 2 1v10c-.667.667-1.333 1-2 1s-1.333-.333-2-1V6zm7.798 29.219l.249.364-.331.292A9.474 9.474 0 0 0 20.5 43a9.5 9.5 0 0 0 19 0 9.474 9.474 0 0 0-3.216-7.125l-.33-.292.248-.364a7.5 7.5 0 1 0-12.404 0zM21.5 31a8.5 8.5 0 1 1 15.763 4.417A10.47 10.47 0 0 1 40.5 43c0 5.799-4.701 10.5-10.5 10.5S19.5 48.799 19.5 43a10.47 10.47 0 0 1 3.237-7.583A8.462 8.462 0 0 1 21.5 31zm8.5 3.5a4.5 4.5 0 1 1 0-9 4.5 4.5 0 0 1 0 9zm0-1a3.5 3.5 0 1 0 0-7 3.5 3.5 0 0 0 0 7zm0 17a7 7 0 1 1 0-14 7 7 0 0 1 0 14zm0-1a6 6 0 1 0 0-12 6 6 0 0 0 0 12zm13 3a2.5 2.5 0 1 1 0-5 2.5 2.5 0 0 1 0 5zm0-1a1.5 1.5 0 1 0 0-3 1.5 1.5 0 0 0 0 3z"/>
  </g>
</svg>
