<svg xmlns="http://www.w3.org/2000/svg" viewBox="0 0 64 64">
  <g transform="translate(8 5)">
    <path d="M8 5V1c.667-.667 1.333-1 2-1s1.333.333 2 1v4h10V1c.667-.667 1.333-1 2-1s1.333.333 2 1v4h10V1c.667-.667 1.333-1 2-1s1.333.333 2 1v4h8v50H0V5h8zM4 15v36h40V15H4zm19-4.44c.372.304.704.44 1 .44.296 0 .628-.136 1-.44V1.44c-.372-.304-.704-.44-1-.44-.296 0-.628.136-1 .44v9.12zm14 0c.372.304.704.44 1 .44.296 0 .628-.136 1-.44V1.44c-.372-.304-.704-.44-1-.44-.296 0-.628.136-1 .44v9.12zm-28 0c.372.304.704.44 1 .44.296 0 .628-.136 1-.44V1.44c-.372-.304-.704-.44-1-.44-.296 0-.628.136-1 .44v9.12z"/>
    <path d="M13.5 26a8.5 8.5 0 1 1 15.763 4.417A10.47 10.47 0 0 1 32.5 38c0 5.799-4.701 10.5-10.5 10.5S11.5 43.799 11.5 38a10.47 10.47 0 0 1 3.237-7.583A8.462 8.462 0 0 1 13.5 26zm8.5 2.5a3.5 3.5 0 1 0 0-7 3.5 3.5 0 0 0 0 7zm0 16a6 6 0 1 0 0-12 6 6 0 0 0 0 12zm13 3a2.5 2.5 0 1 1 0-5 2.5 2.5 0 0 1 0 5z"/>
  </g>
</svg>
