<svg xmlns="http://www.w3.org/2000/svg" viewBox="0 0 64 64">
  <path d="M4.5 57.5h55.12v-51H44.206l-8 8H15.5v-4H8.436v4H4.5v43zm31.293-44l8-8h16.826v53H3.5v-45h3.936v-4H16.5v4h19.293zM32 54.5c-9.113 0-16.5-7.387-16.5-16.5S22.887 21.5 32 21.5 48.5 28.887 48.5 38 41.113 54.5 32 54.5zm0-1c8.56 0 15.5-6.94 15.5-15.5 0-8.56-6.94-15.5-15.5-15.5-8.56 0-15.5 6.94-15.5 15.5 0 8.56 6.94 15.5 15.5 15.5zm11-39l3.75-5h8.75v5H43zm11.5-1v-3h-7.25l-2.25 3h9.5zM32 49.5c6.351 0 11.5-5.149 11.5-11.5S38.351 26.5 32 26.5 20.5 31.649 20.5 38 25.649 49.5 32 49.5zm0 1c-6.904 0-12.5-5.596-12.5-12.5S25.096 25.5 32 25.5 44.5 31.096 44.5 38 38.904 50.5 32 50.5z"/>
</svg>
