<svg xmlns="http://www.w3.org/2000/svg" viewBox="0 0 64 64">
  <path d="M5.52 5.52c-.53.529-.377 2.205.756 4.967l21.749 21.749-21.75 21.749c-1.132 2.762-1.284 4.437-.755 4.967.529.529 2.205.376 4.967-.756l21.749-21.75 21.749 21.75c2.762 1.132 4.437 1.285 4.967.756.529-.53.376-2.205-.756-4.967l-21.75-21.75 21.75-21.748c1.132-2.762 1.285-4.438.756-4.967-.53-.53-2.205-.377-4.967.756l-21.75 21.749-21.748-21.75C7.725 5.144 6.049 4.992 5.52 5.52zm26.716 21.09L53.418 5.428c3.223-1.348 5.303-1.553 6.24-.615.938.937.733 3.017-.615 6.24L37.861 32.236l21.182 21.182c1.348 3.223 1.553 5.303.616 6.24-.938.938-3.018.733-6.24-.615L32.235 37.861 11.053 59.043c-3.223 1.348-5.303 1.553-6.24.616-.938-.938-.733-3.018.615-6.24L26.61 32.235 5.428 11.053C4.08 7.83 3.875 5.75 4.813 4.813c.937-.938 3.017-.733 6.24.615L32.236 26.61z"/>
</svg>
