<svg xmlns="http://www.w3.org/2000/svg" viewBox="0 0 64 64">
  <path d="M32 47.5c9.073 0 18.185-5.152 27.334-15.5C50.184 21.652 41.074 16.5 32 16.5c-9.073 0-18.185 5.152-27.334 15.5C13.816 42.348 22.926 47.5 32 47.5zM3.624 31.67C13.044 20.906 22.503 15.5 32 15.5s18.956 5.405 28.376 16.17l.288.33-.288.33C50.956 43.094 41.497 48.5 32 48.5S13.044 43.095 3.624 32.33L3.336 32l.288-.33zm2.114.756l-3.346-2.06 3.755 1.156C14.767 34.174 23.384 35.5 32 35.5c8.616 0 17.233-1.326 25.853-3.978l3.755-1.155-3.346 2.059C49.52 37.806 40.763 40.5 32 40.5c-8.763 0-17.52-2.694-26.262-8.074zM32 39.5c7.395 0 14.795-1.965 22.205-5.9-7.4 1.933-14.802 2.9-22.205 2.9-7.403 0-14.805-.967-22.205-2.9 7.41 3.935 14.81 5.9 22.205 5.9z"/>
</svg>
