<svg xmlns="http://www.w3.org/2000/svg" viewBox="0 0 64 64">
  <path d="M16 48.5h35a8.5 8.5 0 1 0-.953-16.947l-.535.06-.02-.538C49.268 25.18 44.417 20.5 38.5 20.5a10.95 10.95 0 0 0-6.61 2.206l-.565.426-.212-.676a8.5 8.5 0 0 0-16.612 2.7l.008.432-.425.07A11.506 11.506 0 0 0 4.5 37c0 6.351 5.149 11.5 11.5 11.5zm35-18a9.5 9.5 0 0 1 0 19H16C9.096 49.5 3.5 43.904 3.5 37a12.504 12.504 0 0 1 10.003-12.25A9.5 9.5 0 0 1 23 15.5c3.95 0 7.43 2.433 8.84 6.016A11.946 11.946 0 0 1 38.5 19.5c6.28 0 11.458 4.832 11.96 11.015.18-.01.36-.015.54-.015z"/>
</svg>
