<svg xmlns="http://www.w3.org/2000/svg" viewBox="0 0 64 64">
  <path d="M33.502 44.04l-.062-.769.727.258C49.89 49.097 57.5 46.56 57.5 36c0-10.57-6.935-13.091-21.32-7.534l-1.546.598.958-1.353C46.729 11.988 45.482 4.5 32 4.5c-13.481 0-14.73 7.488-3.592 23.211l.958 1.353-1.546-.598C13.435 22.91 6.5 25.43 6.5 36c0 10.561 7.61 13.097 23.333 7.529l.727-.258-.062.769c-.603 7.54-2.294 12.697-5.119 15.46h13.242c-2.825-2.763-4.516-7.92-5.12-15.46zm6.785 15.55l1.298.91h-19.17l1.298-.91c3.08-2.158 5.008-7.108 5.723-14.864C13.639 50.15 5.5 47.266 5.5 36c0-11.04 7.213-14.04 21.176-9.027C16.15 11.553 17.878 3.5 32 3.5s15.85 8.054 5.324 23.473C51.287 21.96 58.5 24.959 58.5 36c0 11.266-8.14 14.15-23.936 8.726.715 7.756 2.643 12.706 5.723 14.864z"/>
</svg>
