<svg xmlns="http://www.w3.org/2000/svg" viewBox="0 0 64 64">
  <path d="M45.009 43.178c-.04-.438.052-1.068.302-1.89l8.836-9.343-8.781-9.415c-.288-.926-.406-1.67-.354-2.231-.044-.523.034-.879.212-1.067.174-.184.503-.265.99-.22.524-.054 1.216.072 2.079.38L60 32 48.293 44.608c-1.464.523-2.44.523-2.927 0-.282-.302-.4-.779-.357-1.43zm-26.018 0c.04-.438-.052-1.068-.302-1.89l-8.836-9.343 8.781-9.415c.288-.926.406-1.67.354-2.231.044-.523-.034-.879-.212-1.067-.174-.184-.503-.265-.99-.22-.524-.054-1.216.072-2.079.38L4 32l11.707 12.608c1.464.523 2.44.523 2.927 0 .282-.302.4-.779.357-1.43zm21.396-30.705L19.283 49.027c.28 1.25.775 2.06 1.467 2.459.692.399 1.64.424 2.863.041l21.104-36.554c-.28-1.25-.775-2.06-1.467-2.459-.692-.399-1.64-.424-2.863-.041z"/>
</svg>
