<svg xmlns="http://www.w3.org/2000/svg" viewBox="0 0 64 64">
  <g fill-rule="evenodd">
    <path fill-rule="nonzero" d="M32 59.5c11.893 0 22.306-7.617 26.05-18.661C50.552 41.589 41.504 42 32 42c-9.505 0-18.553-.411-26.05-1.161C9.695 51.883 20.108 59.5 32 59.5zM5.291 39.766C12.896 40.56 22.203 41 32 41s19.104-.439 26.709-1.234l.753-.079-.223.723C55.584 52.26 44.592 60.5 32 60.5S8.416 52.26 4.761 40.41l-.223-.723.753.079zM32 38c9.97 0 19.429-.454 27.096-1.275A27.68 27.68 0 0 0 59.5 32C59.5 16.812 47.188 4.5 32 4.5S4.5 16.812 4.5 32c0 1.596.136 3.175.404 4.725C12.571 37.545 22.03 38 32 38zm-28.013-.726A28.655 28.655 0 0 1 3.5 32C3.5 16.26 16.26 3.5 32 3.5S60.5 16.26 60.5 32c0 1.784-.164 3.547-.487 5.274l-.068.364-.37.04C51.807 38.53 42.167 39 32 39s-19.806-.47-27.576-1.321l-.369-.04-.068-.365zM32 36.5c-6.904 0-12.5-5.596-12.5-12.5S25.096 11.5 32 11.5 44.5 17.096 44.5 24 38.904 36.5 32 36.5zm0-1c6.351 0 11.5-5.149 11.5-11.5S38.351 12.5 32 12.5 20.5 17.649 20.5 24 25.649 35.5 32 35.5z"/>
    <path fill-rule="nonzero" d="M32 31.5a7.5 7.5 0 1 0 0-15 7.5 7.5 0 0 0 0 15zm0 1a8.5 8.5 0 1 1 0-17 8.5 8.5 0 0 1 0 17zm0-5a3.5 3.5 0 1 1 0-7 3.5 3.5 0 0 1 0 7zm0-1a2.5 2.5 0 1 0 0-5 2.5 2.5 0 0 0 0 5z"/>
  </g>
</svg>
