<svg xmlns="http://www.w3.org/2000/svg" viewBox="0 0 64 64">
  <g transform="translate(4 4)">
    <path d="M28 55.5c11.893 0 22.306-7.617 26.05-18.661C46.552 37.589 37.504 38 28 38c-9.505 0-18.553-.411-26.05-1.161C5.695 47.883 16.108 55.5 28 55.5zM28 34c9.97 0 19.429-.454 27.096-1.275A27.68 27.68 0 0 0 55.5 28C55.5 12.812 43.188.5 28 .5S.5 12.812.5 28c0 1.596.136 3.175.404 4.725C8.571 33.545 18.03 34 28 34zm0-1.5c-6.904 0-12.5-5.596-12.5-12.5S21.096 7.5 28 7.5 40.5 13.096 40.5 20 34.904 32.5 28 32.5z"/>
    <path d="M28 27.5a7.5 7.5 0 1 0 0-15 7.5 7.5 0 0 0 0 15zm0-4a3.5 3.5 0 1 1 0-7 3.5 3.5 0 0 1 0 7zm0-1a2.5 2.5 0 1 0 0-5 2.5 2.5 0 0 0 0 5z"/>
  </g>
</svg>
