<svg xmlns="http://www.w3.org/2000/svg" viewBox="0 0 64 64">
  <path d="M26.532 51.984l-1.573 4.72-.335.022c-2.528.165-4.657.413-6.144.714-1.252.253-1.98.569-1.98.56 0 .589 7.288 1.5 15.5 1.5s15.5-.911 15.5-1.5c0 .009-.728-.307-1.98-.56-1.487-.3-3.616-.549-6.144-.714l-.335-.022-1.573-4.72.593-1.484H25.94l.593 1.484zm-2.07-2.484h15.077l-1.007 2.516 1.245 3.734c5.567.382 8.723 1.044 8.723 2.25 0 1.62-7.039 2.5-16.5 2.5s-16.5-.88-16.5-2.5c0-1.206 3.156-1.868 8.723-2.25l1.245-3.734L24.46 49.5zM5 5v42h54V5H5zM4 4h56v44H4V4zm5 5v30h46V9H9zM8 8h48v32H8V8z"/>
</svg>
