<svg xmlns="http://www.w3.org/2000/svg" viewBox="0 0 64 64">
  <g fill-rule="evenodd">
    <path fill-rule="nonzero" d="M4.666 32C13.816 42.348 22.926 47.5 32 47.5c9.073 0 18.185-5.152 27.334-15.5C50.184 21.652 41.074 16.5 32 16.5c-9.073 0-18.185 5.152-27.334 15.5zm-1.042-.33C13.044 20.906 22.503 15.5 32 15.5s18.956 5.405 28.376 16.17l.288.33-.288.33C50.956 43.094 41.497 48.5 32 48.5S13.044 43.095 3.624 32.33L3.336 32l.288-.33zM32 47.5c-9.652 0-17.5-6.925-17.5-15.5S22.348 16.5 32 16.5c9.652 0 17.5 6.925 17.5 15.5S41.652 47.5 32 47.5zm0-1c9.126 0 16.5-6.507 16.5-14.5S41.126 17.5 32 17.5c-9.126 0-16.5 6.507-16.5 14.5S22.874 46.5 32 46.5z"/>
    <path fill-rule="nonzero" d="M32 40.5a8.5 8.5 0 1 1 0-17 8.5 8.5 0 0 1 0 17zm0-1a7.5 7.5 0 1 0 0-15 7.5 7.5 0 0 0 0 15z"/>
  </g>
</svg>
