<svg xmlns="http://www.w3.org/2000/svg" viewBox="0 0 64 64">
  <g transform="translate(3 15)">
    <path d="M.624 16.67C10.044 5.906 19.503.5 29 .5s18.956 5.405 28.376 16.17l.288.33-.288.33C47.956 28.094 38.497 33.5 29 33.5S10.044 28.095.624 17.33L.336 17l.288-.33zM29 31.5c9.126 0 16.5-6.507 16.5-14.5S38.126 2.5 29 2.5c-9.126 0-16.5 6.507-16.5 14.5S19.874 31.5 29 31.5z"/>
    <path d="M29 27.5c-5.799 0-10.5-4.701-10.5-10.5S23.201 6.5 29 6.5 39.5 11.201 39.5 17 34.799 27.5 29 27.5zm0-3a7.5 7.5 0 1 0 0-15 7.5 7.5 0 0 0 0 15z"/>
  </g>
</svg>
