<svg xmlns="http://www.w3.org/2000/svg" viewBox="0 0 64 64">
  <path d="M29 40.5c-9.113 0-16.5-7.387-16.5-16.5S19.887 7.5 29 7.5 45.5 14.887 45.5 24 38.113 40.5 29 40.5zm7.5 14.07c1.465.136 2.527.453 2.876 1.005C46.778 55.833 51.5 56.606 51.5 58c0 1.62-7.039 2.5-16.5 2.5s-16.5-.88-16.5-2.5c0-1.394 4.722-2.167 12.124-2.425.349-.552 1.411-.87 2.876-1.006v-8.51a22.509 22.509 0 0 1-4.442.441c-4.03 0-7.907-1.067-11.31-3.062l-.43-.252 2.187-3.76.439.28a17.83 17.83 0 0 0 9.613 2.794c9.914 0 17.95-8.057 17.95-17.997A17.998 17.998 0 0 0 38.024 8.63l-.455-.245 2.368-4.07.432.254A22.494 22.494 0 0 1 51.5 24.003c0 9.634-6.096 18.096-15 21.23v9.336z"/>
</svg>
