<svg xmlns="http://www.w3.org/2000/svg" viewBox="0 0 64 64">
  <path d="M29 39.5c8.56 0 15.5-6.94 15.5-15.5 0-8.56-6.94-15.5-15.5-15.5-8.56 0-15.5 6.94-15.5 15.5 0 8.56 6.94 15.5 15.5 15.5zm0 1c-9.113 0-16.5-7.387-16.5-16.5S19.887 7.5 29 7.5 45.5 14.887 45.5 24 38.113 40.5 29 40.5zm8.995 15.36c-.498-.16-1.213-.277-2.027-.33l-.468-.03V44.516l.342-.114C44.525 41.501 50.5 33.327 50.5 24.003A21.493 21.493 0 0 0 40.293 5.69L38.949 8a18.997 18.997 0 0 1 9.559 16.503c0 10.492-8.485 18.997-18.951 18.997a18.83 18.83 0 0 1-9.708-2.677l-1.163 2A21.3 21.3 0 0 0 29.058 45.5c1.641 0 3.258-.185 4.83-.547l.612-.142v10.69l-.468.03c-.814.052-1.529.17-2.027.328-.218.07-.382.143-.48.21l.117.474-.618.02C24.606 56.769 19.5 57.58 19.5 58c0 .589 7.288 1.5 15.5 1.5s15.5-.911 15.5-1.5c0-.42-5.106-1.231-11.524-1.437l-.618-.02.118-.474a1.949 1.949 0 0 0-.48-.21zM36.5 54.57c1.465.136 2.527.453 2.876 1.005C46.778 55.833 51.5 56.606 51.5 58c0 1.62-7.039 2.5-16.5 2.5s-16.5-.88-16.5-2.5c0-1.394 4.722-2.167 12.124-2.425.349-.552 1.411-.87 2.876-1.006v-8.51a22.509 22.509 0 0 1-4.442.441c-4.03 0-7.907-1.067-11.31-3.062l-.43-.252 2.187-3.76.439.28a17.83 17.83 0 0 0 9.613 2.794c9.914 0 17.95-8.057 17.95-17.997A17.998 17.998 0 0 0 38.024 8.63l-.455-.245 2.368-4.07.432.254A22.494 22.494 0 0 1 51.5 24.003c0 9.634-6.096 18.096-15 21.23v9.336z"/>
</svg>
