<svg xmlns="http://www.w3.org/2000/svg" viewBox="0 0 64 64">
  <path d="M58.245 12.152C54.943 5.81 49.81 3.455 44.231 4.91c-5.098 1.33-9.79 5.742-11.762 11.094L32 17.277l-.47-1.274c-1.97-5.352-6.662-9.765-11.76-11.093-5.578-1.454-10.712.9-14.014 7.243C1.012 21.262 9.709 37.021 32 59.294 54.291 37.02 62.988 21.263 58.245 12.152zM43.98 3.942c6.033-1.574 11.638.996 15.153 7.749 5.06 9.721-3.919 25.898-26.78 48.663l-.352.352-.353-.352C8.787 37.59-.193 21.412 4.867 11.691c3.516-6.753 9.12-9.323 15.154-7.75C25.07 5.258 29.705 9.381 32 14.507c2.295-5.127 6.93-9.25 11.979-10.566z"/>
</svg>
