<svg xmlns="http://www.w3.org/2000/svg" viewBox="0 0 64 64">
  <g transform="translate(4 15)">
    <path d="M35.927 3.115v13.733h2.798V4.446c6.42 3.81 9.827 11.717 10.259 23.66l.016.454-.45.03L27.967 30 7 28.56l.016-.455c.432-11.942 3.839-19.848 10.259-23.66V15.91h2.798V3.115c1.96-.727 4.137-1.148 6.528-1.265v18.966l2.798 3.13V1.85c2.39.117 4.567.538 6.528 1.265zM27.534.25L28 0l.466.25v21.248l-.932-1.043V.25z"/>
    <path d="M7.66 29.007L7.778 29l20.642 1.377L49.127 29l.116.006c3.692.65 6.012 1.247 7.018 1.82.685.389.968.927.528 1.45-.288.344-.896.6-1.868.84-3.553.871-12.353 1.496-26.482 1.884-14.246-.423-23.045-1.048-26.454-1.885-.942-.231-1.526-.484-1.798-.832-.409-.524-.114-1.044.566-1.431 1.004-.572 3.288-1.177 6.906-1.845zM18 15h1V3l-1 .473zm20 1V3.475L37 3v13z"/>
  </g>
</svg>
