<svg xmlns="http://www.w3.org/2000/svg" viewBox="0 0 64 64">
  <g transform="translate(2 14)">
    <path d="M39.5 5.36l-.69-.284c-2.292-.945-4.9-1.466-7.826-1.56L30.5 3.5V.832L30 .566l-.5.266V3.5l-.484.016c-2.926.094-5.534.615-7.825 1.56l-.691.285V3.809l-1 .5v1.569l-.253.144C12.638 9.77 9.05 17.754 8.519 30.034l21.447 1.467 21.515-1.467c-.53-12.28-4.12-20.263-10.728-24.012l-.253-.144V4.309l-1-.5v1.552zm-1-3.169l3 1.5v1.607c6.884 4.057 10.537 12.472 11 25.184l.017.484-.483.033-22.068 1.5-22.483-1.533.017-.484c.463-12.712 4.116-21.127 11-25.184V3.691l3-1.5v1.691c2.103-.774 4.437-1.222 7-1.346V.23L30-.566l1.5.796v2.306c2.563.124 4.897.572 7 1.346V2.191z"/>
    <path d="M7.907 30.009L8.034 30l21.932 1.5 22-1.5.123.007c3.923.709 6.387 1.358 7.457 1.982.727.424 1.028 1.01.561 1.58-.307.375-.952.655-1.985.915-3.775.95-13.125 1.631-28.137 2.053-15.137-.46-24.485-1.141-28.107-2.053-1-.252-1.622-.527-1.91-.907-.435-.57-.122-1.138.6-1.56 1.068-.622 3.494-1.281 7.339-2.01zm-6.834 2.873a1.64 1.64 0 0 0-.234.16c.184.133.62.306 1.283.473 3.523.887 12.841 1.565 27.864 2.024 14.9-.42 24.217-1.099 27.892-2.024.716-.18 1.187-.367 1.383-.512a1.608 1.608 0 0 0-.22-.15c-.925-.54-3.302-1.167-7.069-1.85L29.966 32.5 8.03 31.003c-3.691.701-6.03 1.338-6.957 1.88zM28.5.23L30-.566l1.5.796v25.824l-3-3.331V.23zm1 .602v21.507l1 1.11V.832L30 .566l-.5.266zM19.5 16.5h1V3.809l-1 .5V16.5zm-1-12.809l3-1.5V17.5h-3V3.691zm22 13.809V4.309l-1-.5V17.5h1zm-2 1V2.191l3 1.5V18.5h-3z"/>
  </g>
</svg>
