<svg xmlns="http://www.w3.org/2000/svg" viewBox="0 0 64 64">
  <g transform="translate(6 8)">
    <path d="M6.343 3.5l.124.32c3.307 8.6 5.954 13.894 7.887 15.826 1.893 1.894 5.78 3.194 11.647 3.851 5.838-.63 9.724-1.929 11.645-3.85 1.96-1.96 4.608-7.255 7.887-15.826l.123-.321h4.225C50.988 2.93 51.5 2.406 51.5 2c0-.406-.512-.93-1.62-1.5H2.12C1.011 1.07.5 1.594.5 2c0 .406.512.93 1.62 1.5h4.223zm-4.461 1l-.106-.053C.29 3.704-.5 2.914-.5 2c0-.914.79-1.704 2.276-2.447L1.882-.5h48.236l.106.053C51.71.296 52.5 1.086 52.5 2c0 .914-.79 1.704-2.276 2.447l-.106.053h-3.774c-3.274 8.517-5.92 13.783-7.99 15.854-2.129 2.128-6.225 3.494-12.3 4.143h-.11c-6.102-.678-10.197-2.043-12.298-4.143C11.604 18.31 8.96 13.045 5.656 4.5H1.883z"/>
    <path d="M35.458 18.316c1.47-1.496 2.593-3.433 3.366-5.816H13.068c.849 2.403 2 4.34 3.45 5.816 1.532 1.559 4.693 2.635 9.471 3.18 4.755-.522 7.915-1.598 9.47-3.18zm-9.526 4.18c-5.017-.566-8.389-1.71-10.127-3.479-1.696-1.726-2.998-4.016-3.91-6.865l-.208-.652h28.478l-.185.639c-.818 2.83-2.086 5.126-3.808 6.878-1.762 1.792-5.135 2.937-10.13 3.48h-.11zM6.343 44.497l.124-.32c3.307-8.6 5.954-13.894 7.887-15.826 1.893-1.894 5.78-3.194 11.647-3.85 5.838.629 9.724 1.928 11.645 3.85 1.96 1.96 4.608 7.254 7.887 15.825l.123.321h4.225c1.107.57 1.619 1.094 1.619 1.5 0 .407-.512.93-1.62 1.5H2.12c-1.108-.57-1.62-1.093-1.62-1.5 0-.406.512-.93 1.62-1.5h4.223zm-4.461-1l-.106.053C.29 44.293-.5 45.083-.5 45.997c0 .915.79 1.704 2.276 2.447l.106.053h48.236l.106-.053c1.487-.743 2.276-1.532 2.276-2.447 0-.914-.79-1.704-2.276-2.447l-.106-.053h-3.774c-3.274-8.517-5.92-13.783-7.99-15.853-2.129-2.129-6.225-3.494-12.3-4.144h-.11c-6.102.678-10.197 2.043-12.298 4.144-2.042 2.042-4.687 7.308-7.99 15.853H1.883z"/>
    <path d="M29.905 36.585c1.213.234 5.129.934 5.849 1.073 4.034.776 5.693 1.464 5.952 2.552l.806 3.384H9.64l.845-3.378c.284-1.136 1.787-1.814 5.57-2.552 1.092-.214 5.779-1.032 6.034-1.078.864-.156 2.155-.787 3.911-1.899 1.737 1.097 3.026 1.73 3.905 1.898zm-4.175-2.911c-1.79 1.15-3.078 1.795-3.819 1.928-.246.045-4.944.865-6.048 1.08-4.187.817-5.926 1.601-6.348 3.291L8.36 44.594h35.418l-1.1-4.616c-.397-1.67-2.25-2.44-6.735-3.302-.729-.14-4.644-.84-5.848-1.073-.763-.147-2.052-.791-3.825-1.93L26 33.5l-.27.174zM28.5 26.5c0 .806-.691 2.188-2.084 4.277l-.416.624-.416-.624C24.191 28.688 23.5 27.306 23.5 26.5c0-1.2 1-1.256 2.5-.555 1.5-.701 2.5-.645 2.5.555zm-1 0c0-.075-.233-.075-1.276.447L26 27.06l-.224-.112c-1.043-.522-1.276-.522-1.276-.447 0 .467.502 1.525 1.5 3.086.998-1.56 1.5-2.62 1.5-3.086z"/>
  </g>
</svg>
