<svg xmlns="http://www.w3.org/2000/svg" viewBox="0 0 64 64">
  <g transform="translate(5 7)">
    <path d="M7.343 4.5l.124.32c3.307 8.6 5.954 13.894 7.887 15.826 1.893 1.894 5.78 3.194 11.647 3.851 5.838-.63 9.724-1.929 11.645-3.85 1.96-1.96 4.608-7.255 7.887-15.826l.123-.321h4.225C51.988 3.93 52.5 3.406 52.5 3c0-.406-.512-.93-1.62-1.5H3.12C2.011 2.07 1.5 2.594 1.5 3c0 .406.512.93 1.62 1.5h4.223zm-4.461 1l-.106-.053C1.29 4.704.5 3.914.5 3c0-.914.79-1.704 2.276-2.447L2.882.5h48.236l.106.053C52.71 1.296 53.5 2.086 53.5 3c0 .914-.79 1.704-2.276 2.447l-.106.053h-3.774c-3.274 8.517-5.92 13.783-7.99 15.854-2.129 2.128-6.225 3.494-12.3 4.143h-.11c-6.102-.678-10.197-2.043-12.298-4.143C12.604 19.31 9.96 14.045 6.656 5.5H2.883zm24.05 17.997c-5.017-.567-8.389-1.711-10.127-3.48-1.696-1.726-2.998-4.016-3.91-6.865l-.208-.652h28.478l-.185.639c-.818 2.83-2.086 5.126-3.808 6.878-1.762 1.792-5.135 2.937-10.13 3.48h-.11z"/>
    <path d="M7.343 45.497l.124-.32c3.307-8.6 5.954-13.894 7.887-15.826 1.893-1.894 5.78-3.194 11.647-3.85 5.838.629 9.724 1.928 11.645 3.85 1.96 1.96 4.608 7.254 7.887 15.825l.123.321h4.225c1.107.57 1.619 1.094 1.619 1.5 0 .407-.512.93-1.62 1.5H3.12c-1.108-.57-1.62-1.093-1.62-1.5 0-.406.512-.93 1.62-1.5h4.223zm-4.461-1l-.106.053C1.29 45.293.5 46.083.5 46.997c0 .915.79 1.704 2.276 2.447l.106.053h48.236l.106-.053c1.487-.743 2.276-1.532 2.276-2.447 0-.914-.79-1.704-2.276-2.447l-.106-.053h-3.774c-3.274-8.517-5.92-13.783-7.99-15.853-2.129-2.129-6.225-3.494-12.3-4.144h-.11c-6.102.678-10.197 2.043-12.298 4.144-2.042 2.042-4.687 7.308-7.99 15.853H2.883z"/>
    <path d="M26.73 34.674c-1.79 1.15-3.078 1.795-3.819 1.928-.246.045-4.944.865-6.048 1.08-4.187.817-5.926 1.601-6.348 3.291L9.36 45.594h35.418l-1.1-4.616c-.397-1.67-2.25-2.44-6.735-3.302-.729-.14-4.644-.84-5.848-1.073-.763-.147-2.052-.791-3.825-1.93L27 34.5l-.27.174zM29.5 27.5c0 .806-.691 2.188-2.084 4.277l-.416.624-.416-.624C25.191 29.688 24.5 28.306 24.5 27.5c0-1.2 1-1.256 2.5-.555 1.5-.701 2.5-.645 2.5.555z"/>
  </g>
</svg>
