<svg xmlns="http://www.w3.org/2000/svg" viewBox="0 0 64 64">
  <path d="M32 59.5c15.188 0 27.5-12.312 27.5-27.5S47.188 4.5 32 4.5 4.5 16.812 4.5 32 16.812 59.5 32 59.5zm0 1C16.26 60.5 3.5 47.74 3.5 32S16.26 3.5 32 3.5 60.5 16.26 60.5 32 47.74 60.5 32 60.5zm0-5C19.021 55.5 8.5 44.979 8.5 32S19.021 8.5 32 8.5 55.5 19.021 55.5 32 44.979 55.5 32 55.5zm0-1c12.426 0 22.5-10.074 22.5-22.5S44.426 9.5 32 9.5 9.5 19.574 9.5 32 19.574 54.5 32 54.5zm-2.5-9h-2v2h9v-2h-2v-17h2v-2h-7v19zm-1-20h9v4h-2v15h2v4h-11v-4h2v-19zm3.5-5a2.5 2.5 0 1 0 0-5 2.5 2.5 0 0 0 0 5zm0 1a3.5 3.5 0 1 1 0-7 3.5 3.5 0 0 1 0 7z"/>
</svg>
