<svg xmlns="http://www.w3.org/2000/svg" viewBox="0 0 64 64">
  <path d="M55.587 24.5H33.571l-.144-.25A15.491 15.491 0 0 0 20 16.5c-8.56 0-15.5 6.94-15.5 15.5 0 8.56 6.94 15.5 15.5 15.5a15.491 15.491 0 0 0 13.427-7.75l.144-.25h4.093l2.701-6.621 3.92 6.621h3.447l4.273-6.41 3.835 5.905L59.337 32l-3.75-7.5zm.618-1l4.25 8.5-4.502 9.005-3.958-6.095-3.727 5.59h-4.553l-3.184-5.379-2.195 5.379h-4.191A16.49 16.49 0 0 1 20 48.5c-9.113 0-16.5-7.387-16.5-16.5S10.887 15.5 20 15.5a16.49 16.49 0 0 1 14.145 8h22.06zM16 40.5a8.5 8.5 0 1 1 0-17 8.5 8.5 0 0 1 0 17zm0-1a7.5 7.5 0 1 0 0-15 7.5 7.5 0 0 0 0 15z"/>
</svg>
