<svg xmlns="http://www.w3.org/2000/svg" viewBox="0 0 64 64">
  <g transform="translate(4 16)">
    <path d="M40 18h-4.07A7.002 7.002 0 0 0 29 12H11a7 7 0 0 0-7 7v2a7 7 0 0 0 7 7h18a6.977 6.977 0 0 0 4.899-2h6.03A7.002 7.002 0 0 1 33 32H7a7 7 0 0 1-7-7V15a7 7 0 0 1 7-7h26a7 7 0 0 1 7 7v3z"/>
    <path d="M16 14h4.07A7.002 7.002 0 0 0 27 20h18a7 7 0 0 0 7-7v-2a7 7 0 0 0-7-7H27a6.977 6.977 0 0 0-4.899 2h-6.03A7.002 7.002 0 0 1 23 0h26a7 7 0 0 1 7 7v10a7 7 0 0 1-7 7H23a7 7 0 0 1-7-7v-3z"/>
  </g>
</svg>
