<svg xmlns="http://www.w3.org/2000/svg" viewBox="0 0 64 64">
  <g fill-rule="evenodd">
    <path fill-rule="nonzero" d="M38.292 43A7.973 7.973 0 0 1 33 45H15a8 8 0 0 1-8-8v-2a8 8 0 0 1 8-8h18a8.004 8.004 0 0 1 7.748 6H43v-2a6 6 0 0 0-6-6H11a6 6 0 0 0-6 6v10a6 6 0 0 0 6 6h26a6.006 6.006 0 0 0 5.66-4h-4.368zM44 34h-4.07A7.002 7.002 0 0 0 33 28H15a7 7 0 0 0-7 7v2a7 7 0 0 0 7 7h18a6.977 6.977 0 0 0 4.899-2h6.03A7.002 7.002 0 0 1 37 48H11a7 7 0 0 1-7-7V31a7 7 0 0 1 7-7h26a7 7 0 0 1 7 7v3z"/>
    <path fill-rule="nonzero" d="M25.708 21A7.973 7.973 0 0 1 31 19h18a8 8 0 0 1 8 8v2a8 8 0 0 1-8 8H31a8.004 8.004 0 0 1-7.748-6H21v2a6 6 0 0 0 6 6h26a6 6 0 0 0 6-6V23a6 6 0 0 0-6-6H27a6.006 6.006 0 0 0-5.66 4h4.368zM20 30h4.07A7.002 7.002 0 0 0 31 36h18a7 7 0 0 0 7-7v-2a7 7 0 0 0-7-7H31a6.977 6.977 0 0 0-4.899 2h-6.03A7.002 7.002 0 0 1 27 16h26a7 7 0 0 1 7 7v10a7 7 0 0 1-7 7H27a7 7 0 0 1-7-7v-3z"/>
  </g>
</svg>
