<svg xmlns="http://www.w3.org/2000/svg" viewBox="0 0 64 64">
  <path d="M45.516 39.873c1.56-5.943 2.22-12.56 1.984-19.857v-.012C47.427 11.43 40.51 4.5 32 4.5c-8.501 0-15.42 6.929-15.5 15.517-.248 7.296.413 13.912 1.98 19.844 1.683 5.832 6.184 12.323 13.52 19.444 7.363-7.12 11.864-13.61 13.516-19.432zm.965.264c-1.738 6.12-6.45 12.86-14.135 20.224l-.347.332-.346-.333c-7.656-7.363-12.368-14.103-14.136-20.232-1.597-6.042-2.267-12.756-2.017-20.133C15.586 10.873 22.948 3.5 32 3.5c9.059 0 16.42 7.37 16.5 16.49.238 7.386-.432 14.097-2.019 20.147zM32 26.5a6.5 6.5 0 1 1 0-13 6.5 6.5 0 0 1 0 13zm0-1a5.5 5.5 0 1 0 0-11 5.5 5.5 0 0 0 0 11z"/>
</svg>
