<svg xmlns="http://www.w3.org/2000/svg" viewBox="0 0 64 64">
  <g fill-rule="evenodd">
    <path fill-rule="nonzero" d="M32 60.5C16.26 60.5 3.5 47.74 3.5 32S16.26 3.5 32 3.5 60.5 16.26 60.5 32 47.74 60.5 32 60.5zm0-1c15.188 0 27.5-12.312 27.5-27.5S47.188 4.5 32 4.5 4.5 16.812 4.5 32 16.812 59.5 32 59.5z"/>
    <path fill-rule="nonzero" d="M32 60.5C16.26 60.5 3.5 47.74 3.5 32S16.26 3.5 32 3.5 60.5 16.26 60.5 32 47.74 60.5 32 60.5zm0-1c15.188 0 27.5-12.312 27.5-27.5S47.188 4.5 32 4.5 4.5 16.812 4.5 32 16.812 59.5 32 59.5z"/>
    <path fill-rule="nonzero" d="M4.314 59.861c3.004 3.005 9.292 2.477 17.17-1.364a28.375 28.375 0 0 1-5.089-2.645 28.5 28.5 0 0 1-.672-.436 21.72 21.72 0 0 1-3.065-2.485A28.554 28.554 0 0 1 5.62 42.808c-3.79 7.826-4.296 14.064-1.307 17.053zm18.648-.986l.094-.048-.23-.445-.161.474.202.068.095-.05zM14.026 28.19a78.113 78.113 0 0 1 2.607-3.21l.373-.435.38.43a7.5 7.5 0 1 0 10.892-10.301l-.406-.405.455-.348c.512-.393 1.03-.78 1.542-1.152 3.605-2.784 7.212-5.124 10.655-6.922A27.477 27.477 0 0 0 32 4.5C16.812 4.5 4.5 16.812 4.5 32c0 2.853.434 5.645 1.277 8.307 2.115-3.932 4.916-8.054 8.249-12.117zm38.538-15.922c2.073 1.975 3.701 4.145 4.883 6.508.377.754.72 1.529 1.029 2.322 3.505-7.525 3.893-13.49.992-16.39-2.906-2.907-8.885-2.512-16.428 1.01a28.508 28.508 0 0 1 9.524 6.55zM31.5 20a8.5 8.5 0 0 1-14.467 6.053 77.74 77.74 0 0 0-2.224 2.759c-3.538 4.313-6.46 8.675-8.585 12.792a27.553 27.553 0 0 0 7.12 10.601 20.769 20.769 0 0 0 2.933 2.379c.216.144.433.284.66.427a27.397 27.397 0 0 0 5.76 2.876l.09-.047.2.07c6.139 2.096 12.753 1.986 18.801-.203l.349.938A28.434 28.434 0 0 1 32 60.5c-3.177 0-6.284-.52-9.228-1.527-8.615 4.391-15.654 5.107-19.165 1.596C.114 57.076.803 50.092 5.135 41.537A28.453 28.453 0 0 1 3.5 32C3.5 16.26 16.26 3.5 32 3.5c3.372 0 6.665.586 9.767 1.718C50.046 1.162 56.769.594 60.175 4c3.433 3.433 2.829 10.236-1.314 18.605l-.534 1.077-.388-1.137a26.69 26.69 0 0 0-1.386-3.321c-1.13-2.258-2.688-4.335-4.695-6.248a27.535 27.535 0 0 0-10.036-6.67c-3.636 1.82-7.488 4.279-11.353 7.263-.367.267-.731.537-1.093.81A8.47 8.47 0 0 1 31.5 20zM41.97 5.293l-.397.02.194-.095c.068.024.135.05.203.075zM5.21 41.742l.024-.399-.098.194.074.205zm17.36 17.16l.393-.027-.19.098a28.563 28.563 0 0 1-.204-.07zM59.25 28.27a27.753 27.753 0 0 1 .033 7.213l.992.12a31.439 31.439 0 0 0-.033-7.462l-.992.13zm.991-.134a28.753 28.753 0 0 1 .034 7.472l-.993-.12c.275-2.4.265-4.835-.032-7.223l.991-.129z"/>
    <path fill-rule="nonzero" d="M23 28.5a8.5 8.5 0 1 1 0-17 8.5 8.5 0 0 1 0 17zm0-1a7.5 7.5 0 1 0 0-15 7.5 7.5 0 0 0 0 15z"/>
  </g>
</svg>
