<svg xmlns="http://www.w3.org/2000/svg" viewBox="0 0 64 64">
  <path d="M43.461 43.589a8 8 0 0 0 9.305-11.859c2.371-4.057 3.865-7.93 4.695-11.397A27.897 27.897 0 0 1 60 32c0 15.464-12.536 28-28 28-3.374 0-6.61-.597-9.605-1.69C28.37 55.701 35.14 51.433 42 45c.5-.47.988-.94 1.461-1.411zm5.87-14.864a8 8 0 0 0-9.913 11.824c-.311.303-.63.608-.954.915-8.731 8.277-15.62 12.4-21.117 14.4C9.339 50.937 4 42.092 4 32 4 16.536 16.536 4 32 4c9.054 0 17.105 4.297 22.223 10.964-.24 3.716-1.394 8.239-4.892 13.76z"/>
</svg>
