<svg xmlns="http://www.w3.org/2000/svg" viewBox="0 0 64 64">
  <path d="M31 46l-1 2-5 9c-2.982 2.095-10.028 3.009-10 3-2.695-.188-4.365-3.826-4-8 .282-2.244 2.567-6.553 3-7 3.98-3.46 6.057-1.129 8 0 2.302.404 3.368-.325 6-1v-5c-5.268-11.9-8.135-20.079-9-25-1.062-5.331 1.314-8.41 3-9l10 27L42 5c1.686.59 4.216 3.669 3 9-.711 4.921-4.578 13.1-9 25v5c2.632.675 3.698 1.404 6 1 1.943-1.129 4.02-3.46 8 0 .433.447 2.718 4.756 3 7 .365 4.174-1.305 7.812-4 8 .028.009-7.156-.905-10-3l-5-9-1-2c-.591-.75-.797-1.23-1-2-.203.77-.409 1.25-1 2zm15 11c2.02-.121 3.285-2.677 3-6-.396-2.748-2.215-5.113-4-5-2.02.121-3.285 2.677-3 6 .396 2.748 2.215 5.113 4 5zm-28 0c1.785.113 3.604-2.252 4-5 .285-3.323-.98-5.879-3-6-1.785-.113-3.604 2.252-4 5-.285 3.323.98 5.879 3 6z"/>
</svg>
