<svg xmlns="http://www.w3.org/2000/svg" viewBox="0 0 64 64">
  <path d="M46.41 37.644c.835.526 1.26 2.204 1.11 4.155l12.965 11.968.014.198c.174 2.464-.172 4.145-1.105 5.342l-.087.087c-1.197.933-2.878 1.28-5.342 1.105l-.198-.014L41.799 47.52c-1.95.15-3.629-.275-4.155-1.11-.352-.142-.58-.377-.804-.743-3.081 1.711-6.932 2.745-10.844 2.833C13.551 48.404 3.5 38.353 3.5 26 3.5 13.553 13.553 3.5 26 3.5c12.353 0 22.404 10.051 22.5 22.511-.088 3.898-1.122 7.748-2.833 10.829.366.224.601.452.742.804zM26 41.5c8.56 0 15.5-6.94 15.5-15.5 0-8.56-6.94-15.5-15.5-15.5-8.56 0-15.5 6.94-15.5 15.5 0 8.56 6.94 15.5 15.5 15.5z"/>
</svg>
