<svg xmlns="http://www.w3.org/2000/svg" viewBox="0 0 64 64">
  <path d="M46.477 42.198l.026-.248c.184-1.825-.228-3.338-.655-3.474l-.264-.084-.068-.268c-.05-.197-.139-.291-.391-.444l-.103-.061a2.35 2.35 0 0 1-.346-.238l-.32-.273.213-.362c1.764-2.997 2.843-6.852 2.931-10.742C47.409 14.106 37.802 4.5 26 4.5 14.105 4.5 4.5 14.105 4.5 26c0 11.802 9.606 21.409 21.489 21.5 3.905-.088 7.76-1.167 10.757-2.93l.362-.214.273.32c.084.099.145.19.238.346l.061.103c.153.252.247.34.444.39l.268.07.084.263c.136.427 1.65.84 3.474.655l.248-.026 12.034 13.037c2.092.126 3.47-.164 4.411-.87.707-.942.997-2.32.871-4.412L46.477 42.198zm-.068-4.554c.836.526 1.261 2.204 1.11 4.155l12.966 11.968.014.198c.174 2.464-.172 4.145-1.105 5.342l-.087.087c-1.197.933-2.878 1.28-5.342 1.105l-.198-.014L41.799 47.52c-1.95.15-3.629-.275-4.155-1.11-.352-.142-.58-.377-.804-.743-3.081 1.711-6.932 2.745-10.844 2.833C13.551 48.404 3.5 38.353 3.5 26 3.5 13.553 13.553 3.5 26 3.5c12.353 0 22.404 10.051 22.5 22.511-.088 3.898-1.122 7.748-2.833 10.829.366.224.601.452.742.804zM26 42.5c-9.113 0-16.5-7.387-16.5-16.5S16.887 9.5 26 9.5 42.5 16.887 42.5 26 35.113 42.5 26 42.5zm0-1c8.56 0 15.5-6.94 15.5-15.5 0-8.56-6.94-15.5-15.5-15.5-8.56 0-15.5 6.94-15.5 15.5 0 8.56 6.94 15.5 15.5 15.5z"/>
</svg>
