<svg xmlns="http://www.w3.org/2000/svg" viewBox="0 0 64 64">
  <g fill-rule="evenodd">
    <path fill-rule="nonzero" d="M19 5H5v54h54V33h-5v21H10V10h9V5zm1-1v7h-9v42h42V32h7v28H4V4h16z"/>
    <path fill-rule="nonzero" d="M40.842 10.495l4.067 4.309-22.58 22.586c-.415 1.998-.244 3.28.378 3.903.62.62 1.887.78 3.86.345l22.656-22.663 4.318 4.971 5.308-18.812-18.007 5.36zm8.33 9.946l-.66.659-.095-.004.046.054L27.07 42.548c-2.432.584-4.122.401-5.071-.548-.949-.949-1.144-2.652-.586-5.11l22.1-22.106L39 10l21.305-6.343L54 26l-4.171-4.802.05-.05-.096-.004-.611-.703z"/>
  </g>
</svg>
