<svg xmlns="http://www.w3.org/2000/svg" viewBox="0 0 64 64">
  <path d="M8.194 41.785c1.75 3.667 5.13 4.571 9.848 3.327 1.943-.513 4.017-1.369 6.214-2.5 1.3-.67 2.375-1.286 3.91-2.21.84-.504.933-.56 1.158-.684.158-.088.274-.147.368-.183a.693.693 0 0 1 .25-.055.513.513 0 0 1 .537.52c0 8.623-1.81 15.128-5.45 19.5h13.943c-3.641-4.372-5.45-10.877-5.45-19.5 0-.33.264-.525.535-.52a.698.698 0 0 1 .25.055c.095.036.211.095.369.183.225.125.318.18 1.158.685 1.535.923 2.61 1.539 3.91 2.209 2.197 1.131 4.271 1.987 6.214 2.5 4.718 1.244 8.098.34 9.848-3.327 3.209-6.728-4.682-19.16-23.806-37.1-19.124 17.94-27.015 30.372-23.806 37.1zm20.488-.525c-1.553.933-2.645 1.559-3.968 2.24-2.257 1.163-4.394 2.045-6.417 2.579-5.131 1.353-9.012.315-11.005-3.864-3.51-7.358 4.657-20.152 24.367-38.58l.341-.32.341.32c19.71 18.428 27.877 31.222 24.367 38.58-1.993 4.179-5.874 5.217-11.005 3.864-2.023-.534-4.16-1.416-6.417-2.578-1.323-.682-2.415-1.308-3.968-2.241a176.1 176.1 0 0 0-.791-.475c.113 8.56 2.095 14.845 5.921 18.87l.803.845H22.75l.802-.844c3.826-4.026 5.808-10.31 5.921-18.87-.153.09-.382.228-.791.474z"/>
</svg>
