<svg xmlns="http://www.w3.org/2000/svg" viewBox="0 0 64 64">
  <path d="M28.682 41.26c-1.553.933-2.645 1.559-3.968 2.24-2.257 1.163-4.394 2.045-6.417 2.579-5.131 1.353-9.012.315-11.005-3.864-3.51-7.358 4.657-20.152 24.367-38.58l.341-.32.341.32c19.71 18.428 27.877 31.222 24.367 38.58-1.993 4.179-5.874 5.217-11.005 3.864-2.023-.534-4.16-1.416-6.417-2.578-1.323-.682-2.415-1.308-3.968-2.241a176.1 176.1 0 0 0-.791-.475c.113 8.56 2.095 14.845 5.921 18.87l.803.845H22.75l.802-.844c3.826-4.026 5.808-10.31 5.921-18.87-.153.09-.382.228-.791.474z"/>
</svg>
