<svg xmlns="http://www.w3.org/2000/svg" viewBox="0 0 64 64">
  <g fill-rule="evenodd">
    <g fill-rule="nonzero" transform="translate(5 4)">
      <path d="M23.523-.151l.455-1.431.494 1.417c2.088 5.986 5.026 10.23 8.805 12.749 3.775 2.517 8.661 3.494 14.675 2.918l1.77-.17L48.3 16.4c-5.22 3.915-7.8 7.785-7.8 11.6 0 3.815 2.58 7.685 7.8 11.6l1.513 1.135-1.876-.239c-5.765-.733-10.644.243-14.66 2.92-4.02 2.68-6.954 6.919-8.8 12.735l-.455 1.431-.494-1.417c-2.088-5.986-5.026-10.23-8.805-12.749-3.775-2.517-8.661-3.494-14.675-2.918l-1.77.17L-.3 39.6c5.22-3.915 7.8-7.785 7.8-11.6 0-3.815-2.58-7.685-7.8-11.6l-1.513-1.135 1.876.239c5.765.733 10.644-.243 14.66-2.92 4.02-2.68 6.954-6.919 8.8-12.735zm.496 1.653c-1.928 5.337-4.842 9.314-8.742 11.914-3.815 2.544-8.36 3.626-13.616 3.252C6.205 20.404 8.5 24.179 8.5 28c0 3.837-2.315 7.628-6.898 11.38 5.487-.277 10.05.787 13.675 3.204 3.685 2.457 6.584 6.433 8.704 11.914 1.928-5.337 4.842-9.314 8.742-11.914 3.815-2.544 8.36-3.626 13.616-3.252C41.795 35.596 39.5 31.821 39.5 28c0-3.837 2.315-7.628 6.898-11.38-5.487.277-10.05-.787-13.675-3.204-3.685-2.457-6.584-6.433-8.704-11.914z"/>
      <path d="M23.523 13.849l.455-1.431.494 1.417c1.027 2.945 2.465 5.022 4.305 6.249 1.836 1.224 4.222 1.7 7.175 1.418l1.77-.17L36.3 22.4c-2.553 1.915-3.8 3.785-3.8 5.6 0 1.815 1.247 3.685 3.8 5.6l1.513 1.135-1.876-.239c-2.825-.36-5.205.117-7.16 1.42-1.96 1.306-3.394 3.378-4.3 6.235l-.455 1.431-.494-1.417c-1.027-2.945-2.465-5.022-4.305-6.249-1.836-1.224-4.222-1.7-7.175-1.418l-1.77.17L11.7 33.6c2.553-1.915 3.8-3.785 3.8-5.6 0-1.815-1.247-3.685-3.8-5.6l-1.513-1.135 1.876.239c2.825.36 5.205-.117 7.16-1.42 1.96-1.306 3.394-3.378 4.3-6.235zm-3.746 7.067c-1.776 1.184-3.858 1.75-6.233 1.7C15.503 24.377 16.5 26.17 16.5 28c0 1.844-1.01 3.648-2.997 5.42 2.48-.021 4.575.53 6.274 1.664 1.753 1.168 3.153 3 4.207 5.483.978-2.42 2.39-4.251 4.239-5.483 1.776-1.184 3.858-1.75 6.233-1.7C32.497 31.623 31.5 29.83 31.5 28c0-1.844 1.01-3.648 2.997-5.42-2.48.021-4.575-.53-6.274-1.664-1.753-1.168-3.153-3-4.207-5.483-.978 2.42-2.39 4.251-4.239 5.483z"/>
    </g>
    <path fill-rule="nonzero" d="M49.522 3.853l.456-1.476.496 1.462c.41 1.209.974 2.048 1.684 2.534.703.482 1.628.673 2.793.558l1.734-.17-1.38 1.063c-1 .772-1.472 1.5-1.472 2.176 0 .676.472 1.404 1.472 2.176l1.468 1.132-1.838-.24c-1.108-.146-2.025.043-2.777.559-.759.52-1.32 1.354-1.68 2.52l-.456 1.476-.496-1.462c-.41-1.209-.974-2.048-1.684-2.534-.703-.482-1.628-.673-2.793-.558l-1.734.17 1.38-1.063c1-.772 1.472-1.5 1.472-2.176 0-.676-.472-1.404-1.472-2.176l-1.468-1.132 1.838.24c1.108.146 2.025-.043 2.777-.559.759-.52 1.32-1.354 1.68-2.52zm-1.114 3.345a4.448 4.448 0 0 1-2.108.756c.572.66.867 1.34.867 2.046 0 .712-.3 1.4-.884 2.065.812.08 1.522.323 2.125.737.634.435 1.16 1.064 1.582 1.882.406-.798.94-1.428 1.602-1.882a4.448 4.448 0 0 1 2.108-.756c-.572-.66-.867-1.34-.867-2.046 0-.712.3-1.4.884-2.065-.812-.08-1.522-.323-2.125-.737-.634-.435-1.16-1.064-1.582-1.882-.406.798-.94 1.428-1.602 1.882z"/>
  </g>
</svg>
