<svg xmlns="http://www.w3.org/2000/svg" viewBox="0 0 64 64">
  <path d="M28.523 3.849l.455-1.431.494 1.417c2.088 5.986 5.026 10.23 8.805 12.749 3.775 2.517 8.661 3.494 14.675 2.918l1.77-.17L53.3 20.4c-5.22 3.915-7.8 7.785-7.8 11.6 0 3.815 2.58 7.685 7.8 11.6l1.513 1.135-1.876-.239c-5.765-.733-10.644.243-14.66 2.92-4.02 2.68-6.954 6.919-8.8 12.735l-.455 1.431-.494-1.417c-2.088-5.986-5.026-10.23-8.805-12.749-3.775-2.517-8.661-3.494-14.675-2.918l-1.77.17L4.7 43.6c5.22-3.915 7.8-7.785 7.8-11.6 0-3.815-2.58-7.685-7.8-11.6l-1.513-1.135 1.876.239c5.765.733 10.644-.243 14.66-2.92 4.02-2.68 6.954-6.919 8.8-12.735zm0 14c-.906 2.857-2.34 4.929-4.3 6.235-1.955 1.303-4.335 1.78-7.16 1.42l-1.876-.239L16.7 26.4c2.553 1.915 3.8 3.785 3.8 5.6 0 1.815-1.247 3.685-3.8 5.6l-1.423 1.067 1.77-.17c2.954-.282 5.34.195 7.176 1.419 1.84 1.227 3.278 3.304 4.305 6.249l.494 1.417.455-1.43c.906-2.858 2.34-4.93 4.3-6.236 1.955-1.303 4.335-1.78 7.16-1.42l1.876.239L41.3 37.6c-2.553-1.915-3.8-3.785-3.8-5.6 0-1.815 1.247-3.685 3.8-5.6l1.423-1.067-1.77.17c-2.954.282-5.34-.195-7.176-1.419-1.84-1.227-3.278-3.304-4.305-6.249l-.494-1.417-.455 1.43zm-3.746 7.067c1.848-1.232 3.26-3.064 4.24-5.483 1.053 2.483 2.453 4.315 4.206 5.483 1.7 1.133 3.794 1.685 6.274 1.665C37.51 28.35 36.5 30.156 36.5 32c0 1.831.997 3.623 2.956 5.383-2.375-.049-4.457.517-6.233 1.701-1.848 1.232-3.26 3.064-4.24 5.483-1.053-2.483-2.453-4.315-4.206-5.483-1.7-1.133-3.794-1.685-6.274-1.665C20.49 35.65 21.5 33.844 21.5 32c0-1.831-.997-3.623-2.956-5.383 2.375.049 4.457-.517 6.233-1.701zM49.522 3.853l.456-1.476.496 1.462c.41 1.209.974 2.048 1.684 2.534.703.482 1.628.673 2.793.558l1.734-.17-1.38 1.063c-1 .772-1.472 1.5-1.472 2.176 0 .676.472 1.404 1.472 2.176l1.468 1.132-1.838-.24c-1.108-.146-2.025.043-2.777.559-.759.52-1.32 1.354-1.68 2.52l-.456 1.476-.496-1.462c-.41-1.209-.974-2.048-1.684-2.534-.703-.482-1.628-.673-2.793-.558l-1.734.17 1.38-1.063c1-.772 1.472-1.5 1.472-2.176 0-.676-.472-1.404-1.472-2.176l-1.468-1.132 1.838.24c1.108.146 2.025-.043 2.777-.559.759-.52 1.32-1.354 1.68-2.52zm-1.114 3.345a4.448 4.448 0 0 1-2.108.756c.572.66.867 1.34.867 2.046 0 .712-.3 1.4-.884 2.065.812.08 1.522.323 2.125.737.634.435 1.16 1.064 1.582 1.882.406-.798.94-1.428 1.602-1.882a4.448 4.448 0 0 1 2.108-.756c-.572-.66-.867-1.34-.867-2.046 0-.712.3-1.4.884-2.065-.812-.08-1.522-.323-2.125-.737-.634-.435-1.16-1.064-1.582-1.882-.406.798-.94 1.428-1.602 1.882z"/>
</svg>
