<svg xmlns="http://www.w3.org/2000/svg" viewBox="0 0 64 64">
  <g fill-rule="evenodd">
    <path fill-rule="nonzero" d="M32 60.5C16.26 60.5 3.5 47.74 3.5 32S16.26 3.5 32 3.5 60.5 16.26 60.5 32 47.74 60.5 32 60.5zm0-1c15.188 0 27.5-12.312 27.5-27.5S47.188 4.5 32 4.5 4.5 16.812 4.5 32 16.812 59.5 32 59.5z"/>
    <path fill-rule="nonzero" d="M32 50.5c-10.217 0-18.5-8.283-18.5-18.5S21.783 13.5 32 13.5 50.5 21.783 50.5 32 42.217 50.5 32 50.5zm0-1c9.665 0 17.5-7.835 17.5-17.5S41.665 14.5 32 14.5 14.5 22.335 14.5 32 22.335 49.5 32 49.5z"/>
    <path fill-rule="nonzero" d="M32 40.5a8.5 8.5 0 1 1 0-17 8.5 8.5 0 0 1 0 17zm0-1a7.5 7.5 0 1 0 0-15 7.5 7.5 0 0 0 0 15z"/>
    <path fill-rule="nonzero" d="M31.5 4h1v20h-1zm0 36h1v20h-1zm8.5-7.5v-1h20v1zm-16-1v1H4v-1z"/>
  </g>
</svg>
