<svg xmlns="http://www.w3.org/2000/svg" viewBox="0 0 64 64">
  <path d="M13.507 32.5c.26 9.82 8.173 17.733 17.993 17.993V60h1v-9.507c9.82-.26 17.733-8.173 17.993-17.993H60v-1h-9.507c-.26-9.82-8.173-17.733-17.993-17.993V4h-1v9.507c-9.82.26-17.733 8.173-17.993 17.993H4v1h9.507zm1 0h9.007a8.501 8.501 0 0 0 7.986 7.986v9.007c-9.268-.26-16.733-7.725-16.993-16.993zm0-1c.26-9.268 7.725-16.733 16.993-16.993v9.007a8.501 8.501 0 0 0-7.986 7.986h-9.007zm34.986 1c-.26 9.268-7.725 16.733-16.993 16.993v-9.007a8.501 8.501 0 0 0 7.986-7.986h9.007zm0-1h-9.007a8.501 8.501 0 0 0-7.986-7.986v-9.007c9.268.26 16.733 7.725 16.993 16.993zM32 60.5C16.26 60.5 3.5 47.74 3.5 32S16.26 3.5 32 3.5 60.5 16.26 60.5 32 47.74 60.5 32 60.5zm0-21a7.5 7.5 0 1 1 0-15 7.5 7.5 0 0 1 0 15z"/>
</svg>
