<svg xmlns="http://www.w3.org/2000/svg" viewBox="0 0 64 64">
  <g transform="translate(1 3)">
    <path d="M30.998.456L61.69 13.5H.82L30.999.456zm.004 1.088L5.652 12.5h51.129L31 1.544z"/>
    <path d="M31.116 4.47l17.03 6.03H14.371l16.744-6.03zM20.1 9.5h22.227L31.12 5.53 20.1 9.5zM14 53.303V21.868a5.8 5.8 0 0 1-.612-.868H8.612a5.8 5.8 0 0 1-.612.868v31.435L6.202 56h9.596L14 53.303zM8 20h6c.257.58.619 1.106 1 1.473V53l2 3 2 1H3l2-1 2-3V21.473c.381-.367.743-.893 1-1.473zm.3-2.25l.144-.25h5.112l.144.25a1.499 1.499 0 0 0 2.8-.75 1.5 1.5 0 0 0-1.5-1.5H7a1.5 1.5 0 1 0 1.3 2.25zM7 19.5a2.5 2.5 0 0 1 0-5h8a2.5 2.5 0 1 1-2 4H9c-.465.62-1.2 1-2 1zm27 33.803V21.868a5.8 5.8 0 0 1-.612-.868h-4.776a5.8 5.8 0 0 1-.612.868v31.435L26.202 56h9.596L34 53.303zM28 20h6c.257.58.619 1.106 1 1.473V53l2 3 2 1H23l2-1 2-3V21.473c.381-.367.743-.893 1-1.473zm.3-2.25l.144-.25h5.112l.144.25a1.499 1.499 0 0 0 2.8-.75 1.5 1.5 0 0 0-1.5-1.5h-8a1.5 1.5 0 1 0 1.3 2.25zM27 19.5a2.5 2.5 0 0 1 0-5h8a2.5 2.5 0 1 1-2 4h-4c-.465.62-1.2 1-2 1zm27 33.803V21.868a5.8 5.8 0 0 1-.612-.868h-4.776a5.8 5.8 0 0 1-.612.868v31.435L46.202 56h9.596L54 53.303zM48 20h6c.257.58.619 1.106 1 1.473V53l2 3 2 1H43l2-1 2-3V21.473c.381-.367.743-.893 1-1.473zm.3-2.25l.144-.25h5.112l.144.25a1.499 1.499 0 0 0 2.8-.75 1.5 1.5 0 0 0-1.5-1.5h-8a1.5 1.5 0 1 0 1.3 2.25zM47 19.5a2.5 2.5 0 0 1 0-5h8a2.5 2.5 0 1 1-2 4h-4c-.465.62-1.2 1-2 1z"/>
  </g>
</svg>
