<svg xmlns="http://www.w3.org/2000/svg" viewBox="0 0 64 64">
  <path d="M31.998 3.456L62.69 16.5H1.82L31.999 3.456zm.118 4.013L15.372 13.5h33.773L32.116 7.47zM9 23h6c.257.58.619 1.106 1 1.473V56l2 3 2 1H4l2-1 2-3V24.473c.381-.367.743-.893 1-1.473zm-1-.5a2.5 2.5 0 0 1 0-5h8a2.5 2.5 0 1 1-2 4h-4c-.465.62-1.2 1-2 1zm21 .5h6c.257.58.619 1.106 1 1.473V56l2 3 2 1H24l2-1 2-3V24.473c.381-.367.743-.893 1-1.473zm-1-.5a2.5 2.5 0 0 1 0-5h8a2.5 2.5 0 1 1-2 4h-4c-.465.62-1.2 1-2 1zm21 .5h6c.257.58.619 1.106 1 1.473V56l2 3 2 1H44l2-1 2-3V24.473c.381-.367.743-.893 1-1.473zm-1-.5a2.5 2.5 0 0 1 0-5h8a2.5 2.5 0 1 1-2 4h-4c-.465.62-1.2 1-2 1z"/>
</svg>
