<svg xmlns="http://www.w3.org/2000/svg" viewBox="0 0 64 64">
  <g transform="translate(14 3)">
    <path d="M20.868 26.331l7.681 22.846L18 57.641 7.421 49.177l7.731-22.846H16.5V29l.691-2.669H18.5L19 28v-1.669zm-6.275-1.041C11.13 20.443 9.5 17.835 9.5 17c0-.914.79-1.704 2.276-2.447l.106-.053h12.236l.106.053C25.71 15.296 26.5 16.086 26.5 17c0 .834-1.63 3.442-5.093 8.29l-.15.21h-6.514l-.15-.21z"/>
    <path d="M29.525 9.155C28.705 6.647 24.725 5.5 18 5.5c-6.59 0-10.71 1.212-11.526 3.658-.37 1.112 1 2.812 4.112 5.102L8.58 17C2.417 14.844-.269 12.462.522 9.855 2.204 4.305 9.35.5 18 .5c8.62 0 15.807 3.84 17.478 9.355.784 2.584-1.871 4.968-7.965 7.154l-2.013-2.75c3.062-2.243 4.403-3.945 4.025-5.104z"/>
  </g>
</svg>
