<svg xmlns="http://www.w3.org/2000/svg" viewBox="0 0 64 64">
  <g fill-rule="evenodd">
    <path fill-rule="nonzero" d="M34.868 27.5l7.68 24.677L32 60.64l-10.58-8.464L29.153 27.5h1.657l.191.382.191-.382h3.677zM22.579 51.823L32 59.36l9.392-7.536-7.26-23.324h-.323L32.5 31.118V28.5h-.691L31 30.118l-.809-1.618h-.304l-7.308 23.323z"/>
    <path fill-rule="nonzero" d="M34.743 27.5c3.106-4.36 4.757-7.009 4.757-7.5 0-.406-.512-.93-1.62-1.5H26.12c-1.108.57-1.62 1.094-1.62 1.5 0 .491 1.65 3.14 4.757 7.5h5.486zm-6.15.79C25.13 23.443 23.5 20.835 23.5 20c0-.914.79-1.704 2.276-2.447l.106-.053h12.236l.106.053C39.71 18.296 40.5 19.086 40.5 20c0 .834-1.63 3.442-5.093 8.29l-.15.21h-6.514l-.15-.21z"/>
    <path fill-rule="nonzero" d="M40.185 19.455c6.6-1.155 9.258-3.27 8.337-6.31C46.998 8.119 40.225 4.5 32 4.5c-8.254 0-14.988 3.586-16.522 8.645-.932 3.075 1.724 5.189 8.336 6.311l.925-1.263c-4.15-2.016-5.959-4.115-5.213-6.351C20.536 8.81 24.989 7.5 32 7.5c7.154 0 11.461 1.241 12.475 4.345.752 2.3-1.056 4.404-5.209 6.355l.92 1.255zm-1.888-1.912c4.135-1.838 5.796-3.65 5.228-5.388C42.705 9.647 38.725 8.5 32 8.5c-6.59 0-10.71 1.212-11.526 3.658-.555 1.667 1.11 3.484 5.236 5.388l.555.256-2.007 2.74-.303-.048c-7.346-1.193-10.619-3.729-9.433-7.639C16.204 7.305 23.35 3.5 32 3.5c8.62 0 15.807 3.84 17.478 9.355 1.175 3.875-2.095 6.41-9.43 7.638l-.304.051-2.014-2.749.567-.252z"/>
  </g>
</svg>
