<svg xmlns="http://www.w3.org/2000/svg" viewBox="0 0 64 64">
  <g fill-rule="evenodd">
    <path fill-rule="nonzero" d="M8 5a3 3 0 0 0-3 3v48a3 3 0 0 0 3 3h48a3 3 0 0 0 3-3V8a3 3 0 0 0-3-3H8zm0-1h48a4 4 0 0 1 4 4v48a4 4 0 0 1-4 4H8a4 4 0 0 1-4-4V8a4 4 0 0 1 4-4zm4 5a3 3 0 0 0-3 3v40a3 3 0 0 0 3 3h40a3 3 0 0 0 3-3V12a3 3 0 0 0-3-3H12zm0-1h40a4 4 0 0 1 4 4v40a4 4 0 0 1-4 4H12a4 4 0 0 1-4-4V12a4 4 0 0 1 4-4z"/>
    <path fill-rule="nonzero" d="M32 11c-.227 0-.574.246-1 .84v19.592l-.05.153a2.507 2.507 0 0 0-.109.543l.159.162v.255c.17.142.332.25.487.325l.156.076 9.779 9.97c.678.104 1.07.031 1.225-.127.162-.165.236-.585.129-1.298L33 31.523V11.841c-.426-.595-.773-.841-1-.841zm-1.285 21.28l-.245.239h.353c0-.045 0-.088.002-.13a4.442 4.442 0 0 1-.11-.11zM34 31.114l9.708 9.897c.231 1.18.115 2.006-.348 2.477-.462.472-1.272.59-2.43.354L31.05 33.77c-.35-.17-.7-.434-1.05-.791v-.28l-.177-.18c0-.477.06-.893.177-1.249V11.532C30.667 10.51 31.333 10 32 10s1.333.51 2 1.532v19.583z"/>
  </g>
</svg>
