<svg xmlns="http://www.w3.org/2000/svg" viewBox="0 0 64 64">
  <g transform="translate(4 4)">
    <path d="M4 0h48a4 4 0 0 1 4 4v48a4 4 0 0 1-4 4H4a4 4 0 0 1-4-4V4a4 4 0 0 1 4-4zm4 4a4 4 0 0 0-4 4v40a4 4 0 0 0 4 4h40a4 4 0 0 0 4-4V8a4 4 0 0 0-4-4H8z"/>
    <path d="M30 27.115l9.708 9.897c.231 1.18.115 2.006-.348 2.477-.462.472-1.272.59-2.43.354L27.05 29.77c-.35-.17-.7-.434-1.05-.791v-.28l-.177-.18c0-.477.06-.893.177-1.249V7.532C26.667 6.51 27.333 6 28 6s1.333.51 2 1.532v19.583z"/>
  </g>
</svg>
